<svg width="24" height="24" viewBox="0 0 24 24" fill="none" xmlns="http://www.w3.org/2000/svg">
<path d="M5 19V21M19 19V21M5 4V9H19V4C19 3.73478 18.8946 3.48043 18.7071 3.29289C18.5196 3.10536 18.2652 3 18 3H6C5.73478 3 5.48043 3.10536 5.29289 3.29289C5.10536 3.48043 5 3.73478 5 4Z" stroke="#5C9C9A" stroke-width="1.4" stroke-linecap="round" stroke-linejoin="round"/>
<path d="M3 15V18C3 18.2652 3.10536 18.5196 3.29289 18.7071C3.48043 18.8946 3.73478 19 4 19H20C20.2652 19 20.5196 18.8946 20.7071 18.7071C20.8946 18.5196 21 18.2652 21 18V15M3 15H21M3 15L5 9H19L21 15" stroke="#7054AF" stroke-width="1.4" stroke-linecap="round" stroke-linejoin="round"/>
</svg>
