<svg width="24" height="24" viewBox="0 0 24 24" fill="none" xmlns="http://www.w3.org/2000/svg">
<g clip-path="url(#clip0_208_385)">
<path d="M22.5673 19.6695C22.7015 18.4817 23.1349 17.5658 23.1391 17.5571L23.3978 17.0181L22.7996 17.0248C22.7924 17.0251 22.1499 17.029 21.4331 16.7621C20.594 16.4497 20.0121 15.9107 19.6985 15.1595C20.2549 14.423 20.5853 13.5068 20.5853 12.5148C20.5853 10.0908 18.6133 8.1188 16.1893 8.1188C15.8622 8.1188 15.5422 8.15517 15.2332 8.22356C15.0882 7.5743 15.1851 6.90009 15.5252 6.21394C15.8385 5.58178 16.2489 5.17678 16.2524 5.17331L16.6842 4.75486L16.1167 4.55625C16.0794 4.54322 12.387 3.2138 12.387 0H12.3041H11.6444H11.5615C11.5615 1.33195 10.9453 2.49844 9.72969 3.46702C8.79491 4.21186 7.84081 4.55306 7.83167 4.55625L7.26753 4.75448L7.69536 5.17275C7.71012 5.18719 9.07686 6.54848 8.7177 8.21311C8.42403 8.15128 8.1207 8.1188 7.81152 8.1188C5.38756 8.1188 3.41553 10.0908 3.41553 12.5148C3.41553 13.507 3.74614 14.4234 4.30273 15.1599C3.98713 15.9158 3.39959 16.4564 2.55275 16.7677C1.84264 17.0287 1.20753 17.0254 1.20209 17.0248L0.600969 17.0154L0.861781 17.5571C0.878938 17.5927 2.54989 21.1438 0.277344 23.4163L0.802484 23.9413L0.861078 23.9999C1.80284 23.0581 3.06341 22.669 4.60789 22.8437C5.79556 22.9779 6.7115 23.4113 6.72022 23.4155L7.26191 23.6764L7.25253 23.0752C7.2523 23.0602 7.24044 21.5692 8.21417 20.5802C8.78689 19.9985 9.59788 19.703 10.6246 19.7015C11.0576 19.8445 11.52 19.9222 12.0003 19.9222C12.4805 19.9222 12.943 19.8445 13.376 19.7015C14.4004 19.7029 15.2101 19.997 15.7826 20.5759C16.7541 21.5583 16.7486 23.0609 16.7485 23.0752L16.7391 23.6763L17.2808 23.4155C17.3164 23.3983 20.8674 21.7274 23.1399 23.9999L23.1985 23.9413L23.7236 23.4162C22.7817 22.4745 22.3926 21.2138 22.5673 19.6695ZM16.1894 8.86144C18.2039 8.86139 19.8428 10.5003 19.8428 12.5148C19.8428 14.4755 18.2901 16.0798 16.3498 16.1641C16.3802 15.9558 16.3963 15.7429 16.3963 15.5263C16.3963 13.3682 14.8332 11.5684 12.7797 11.1995C13.3158 9.80325 14.6603 8.86144 16.1894 8.86144ZM8.56906 5.05022C8.97205 4.86169 9.57139 4.53947 10.174 4.06237C11.0257 3.38812 11.6315 2.60105 11.9742 1.73616C12.3169 2.60105 12.9227 3.38812 13.7744 4.06237C14.3769 4.53942 14.9763 4.86164 15.3793 5.05022C14.9005 5.67206 14.1546 6.93867 14.5222 8.44603C13.5872 8.82816 12.8053 9.5242 12.3206 10.4229V3.91214H11.578V10.2465C11.0798 9.42014 10.3221 8.78161 9.43048 8.42803C9.78734 6.92836 9.04574 5.66948 8.56906 5.05022ZM4.15813 12.5148C4.15808 10.5003 5.79697 8.86134 7.81147 8.86134C9.33434 8.86134 10.6835 9.80512 11.2205 11.1996C9.16728 11.5686 7.60438 13.3683 7.60438 15.5263C7.60438 15.7429 7.62041 15.9558 7.65083 16.1641C5.71063 16.0796 4.15813 14.4754 4.15813 12.5148ZM7.685 20.0593C6.88888 20.8679 6.63158 21.9174 6.5488 22.5451C6.13063 22.3935 5.47859 22.1974 4.71463 22.1085C3.63556 21.983 2.65072 22.1112 1.79675 22.4805C2.16603 21.6265 2.29419 20.6416 2.16875 19.5626C2.07988 18.7984 1.88356 18.1461 1.73192 17.7279C2.01641 17.6902 2.38761 17.6168 2.78309 17.4741C3.716 17.1374 4.41777 16.5476 4.84184 15.753C5.41114 16.2755 6.11802 16.6501 6.9013 16.8157L3.0553 20.6617L3.58039 21.1867L7.83486 16.9322C8.13153 17.8087 8.69778 18.562 9.43428 19.0933C8.74034 19.2605 8.15417 19.5827 7.685 20.0593ZM12.0002 19.1797C9.98572 19.1797 8.34688 17.5408 8.34688 15.5262C8.34688 13.5118 9.98572 11.8729 12.0002 11.8729C14.0147 11.8729 15.6537 13.5118 15.6537 15.5262C15.6537 17.5408 14.0147 19.1797 12.0002 19.1797ZM22.2041 22.4805C21.3501 22.1112 20.3652 21.983 19.2862 22.1085C18.5223 22.1974 17.8702 22.3935 17.4521 22.5452C17.3693 21.9174 17.112 20.868 16.3159 20.0593C15.8465 19.5826 15.2604 19.2604 14.5663 19.0934C15.3028 18.562 15.869 17.8087 16.1657 16.9321L20.4204 21.1868L20.9455 20.6617L17.0995 16.8157C17.8825 16.6502 18.5892 16.2758 19.1584 15.7535C19.5797 16.543 20.2753 17.1297 21.1998 17.4676C21.602 17.6146 21.9801 17.6897 22.2689 17.7279C22.1173 18.1461 21.921 18.7984 21.8321 19.5626C21.7066 20.6416 21.8348 21.6265 22.2041 22.4805Z" fill="#7054AF"/>
</g>
<defs>
<clipPath id="clip0_208_385">
<rect width="24" height="24" fill="white"/>
</clipPath>
</defs>
</svg>
