<svg width="115" height="115" viewBox="0 0 115 115" fill="none" xmlns="http://www.w3.org/2000/svg">
<path d="M33.3133 72.5848C33.3133 72.5848 8.63323 67.3109 8.21096 67.3918C7.7887 67.4726 2.84729 72.4141 3.01799 73.1777C3.1887 73.9504 24.8051 85.3516 24.8051 85.3516L31.0133 78.8019L33.3133 72.5848Z" fill="#006CA8"/>
<path d="M29.9082 90.0323C29.9082 90.0323 41.9023 110.795 42.4145 110.795C42.9266 110.795 48.452 106.537 48.452 106.114C48.452 105.692 43.3488 80.9312 43.3488 80.9312L34.5801 81.9554L29.9082 90.0323Z" fill="#006CA8"/>
<path d="M20.4747 23.1617C20.4747 23.1617 18.7497 25.1113 18.3813 25.8031C18.013 26.4949 17.9501 27.6808 18.7407 28.1031C19.5313 28.5254 20.4927 28.2379 20.9688 27.7078C21.445 27.1777 23.7899 24.2937 23.7899 24.2937C23.7899 24.2937 20.6813 23 20.4747 23.1617Z" fill="#9A9A9A"/>
<path d="M33.0706 30.2144C33.0706 30.2144 31.678 31.8675 31.112 32.6222C30.564 33.3499 30.573 34.4909 31.3366 35.03C32.4327 35.8026 33.5198 34.9401 34.1128 34.3022C34.6609 33.7093 36.2062 31.8944 36.2062 31.8944L33.0706 30.2144Z" fill="#9A9A9A"/>
<path d="M44.9944 36.6294C44.9944 36.6294 43.1706 38.4532 42.6315 39.181C42.0296 39.9806 41.8948 41.1485 42.7214 41.7774C43.6288 42.4603 44.635 42.1458 45.4526 41.4091C46.2702 40.6813 48.094 38.6778 48.094 38.6778L44.9944 36.6294Z" fill="#9A9A9A"/>
<path d="M76.4662 67.4279C76.4662 67.4279 74.3279 68.9103 73.7979 69.4853C73.2768 70.0603 72.9264 71.2103 73.6002 71.8122C74.265 72.4142 75.2713 72.3603 75.8643 71.965C76.4572 71.5696 79.4221 69.3325 79.4221 69.3325C79.4221 69.3325 76.7088 67.329 76.4662 67.4279Z" fill="#9A9A9A"/>
<path d="M83.6723 78.7119C83.6723 78.7119 81.9024 79.9518 81.1657 80.5357C80.4469 81.1018 80.1684 82.2068 80.7704 82.9256C81.6239 83.9498 82.9087 83.4018 83.6364 82.9346C84.3192 82.5033 86.2778 81.1377 86.2778 81.1377L83.6723 78.7119Z" fill="#9A9A9A"/>
<path d="M90.2653 90.248C90.2653 90.248 88.0641 91.5777 87.3543 92.1527C86.5817 92.7906 86.1684 93.8867 86.8242 94.6953C87.543 95.5758 88.5942 95.5039 89.5645 95.0008C90.5348 94.4977 92.7809 92.9883 92.7809 92.9883L90.2653 90.248Z" fill="#9A9A9A"/>
<path d="M51.4527 21.3198C51.4527 21.3198 51.1382 19.2264 52.8363 16.8635C54.5343 14.5006 60.1675 8.98423 61.039 8.93931C61.9105 8.89438 63.9948 9.99946 66.0882 12.0569C68.0827 14.0065 69.0081 16.5131 69.0441 17.1061C69.08 17.6991 65.1448 21.5983 64.1206 22.5417C63.0964 23.485 60.3382 26.5577 60.3382 26.5577L51.4527 21.3198Z" fill="#9A9A9A"/>
<path d="M54.0234 21.6343C54.0234 21.6343 60.9234 13.198 62.7742 14.4648C64.643 15.7406 57.177 22.982 57.177 22.982L54.0234 21.6343Z" fill="#C8C8C8"/>
<path d="M52.441 21.0953C52.441 21.0953 56.3492 17.1332 56.7804 16.5043C57.2117 15.8754 56.8163 14.932 56.466 14.4109C56.1156 13.8988 55.5765 13.7012 55.5765 13.7012C55.5765 13.7012 52.8183 16.1719 51.8749 18.3371C51.1382 20.0172 51.264 20.8707 51.264 20.8707L52.441 21.0953Z" fill="#848484"/>
<path d="M59.1719 23.1348C59.1719 23.1348 60.6543 21.5985 61.4 20.9875C62.0738 20.4395 63.0711 20.4934 63.6641 20.8438C64.4277 21.293 64.6074 22.0656 64.6074 22.0656L61.8582 24.9856L59.1719 23.1348Z" fill="#848484"/>
<path d="M91.6055 53.4121C91.6055 53.4121 93.8605 50.7887 95.1723 49.477C96.5289 48.1203 98.7391 46.2785 99.1883 46.3145C99.6375 46.3594 101.623 47.5633 103.492 49.477C105.621 51.6512 106.942 54.3555 106.978 54.6071C107.023 54.8496 103.043 58.8297 101.273 60.3481C100.006 61.4352 92.1266 64.6516 92.1266 64.2473C92.1445 63.834 91.6055 53.4121 91.6055 53.4121Z" fill="#9A9A9A"/>
<path d="M92.9082 58.4884C92.9082 58.4884 99.4309 51.3368 100.922 52.6755C102.414 54.0142 93.4562 62.0642 93.4562 62.0642L92.9082 58.4884Z" fill="#C8C8C8"/>
<path d="M92.4227 56.6915L94.8035 54.0681C95.648 53.1427 95.5941 51.9028 95.3426 51.3638C95.0191 50.672 94.1836 50.5103 94.1836 50.5103L91.084 53.8075L92.4227 56.6915Z" fill="#848484"/>
<path d="M94.6773 62.6301C94.6773 62.6301 98.4148 59.2609 99.0527 58.7309C99.6906 58.2008 100.724 57.8234 101.541 58.3894C102.152 58.8117 102.422 59.3238 102.422 59.3238C102.422 59.3238 99.5469 62.4504 97.8129 63.5555C96.7258 64.2473 94.1562 64.6426 94.1562 64.6426L94.6773 62.6301Z" fill="#848484"/>
<path d="M10.4666 8.01408C9.58609 8.08596 4.00679 14.6805 3.80914 15.1656C3.61148 15.6508 3.80914 16.4414 5.18375 17.1242C6.54937 17.807 45.1373 38.1836 45.7302 38.6688C46.3142 39.1629 53.9599 47.6801 53.9599 47.6801C53.9599 47.6801 72.863 34.6528 72.7642 34.2664C72.6654 33.8711 72.0814 25.7492 72.0814 25.7492C72.0814 25.7492 11.7423 7.91525 10.4666 8.01408Z" fill="#006CA8"/>
<path d="M65.6133 59.1442C65.6133 59.1442 77.1672 69.62 78.1465 70.8958C79.1258 72.1716 99.107 108.603 99.4035 109.187C99.7 109.771 100.967 110.265 101.659 109.583C102.35 108.9 107.534 104.39 107.633 103.311C107.732 102.233 88.4336 40.0435 88.4336 40.0435L73.5465 45.4341L65.6133 59.1442Z" fill="#006CA8"/>
<path d="M60.0242 38.8666C60.0242 38.8666 50.9141 30.0529 50.2312 29.5588C49.5484 29.0736 6.8457 11.4463 6.8457 11.4463L5.09375 13.3779C5.09375 13.3779 48.3805 31.6611 49.0723 32.1463C49.7641 32.6314 58.2363 41.3103 58.2363 41.3103L60.0242 38.8666Z" fill="#014EAC"/>
<path d="M74.0312 54.3105C74.0312 54.3105 84.0668 66.6371 84.6687 67.4367C85.2707 68.2363 102.871 108.45 102.871 108.45L104.623 106.815C104.623 106.815 87.0406 65.7836 86.7262 65.2266C86.4117 64.6695 74.723 50.2227 74.723 50.2227L74.0312 54.3105Z" fill="#014EAC"/>
<path d="M21.7594 88.4062C21.7594 88.4062 18.0039 93.7789 18.0039 94.2012C18.0039 94.6324 20.5195 97.3816 20.807 97.3816C21.0945 97.3816 26.557 93.4824 26.557 93.4824L25.7934 89.5832L21.7594 88.4062Z" fill="#9A9A9A"/>
<path d="M21.7598 88.4061C21.7598 88.4061 29.1988 75.8909 37.168 64.7053C45.3527 53.2143 51.9922 46.5928 62.1984 35.4881C75.0012 21.5623 83.5273 13.6741 91.4156 8.36429C97.9562 3.96195 107.3 0.979138 110.633 3.95297C114.29 7.22328 110.256 17.5373 106.15 23.4131C96.8332 36.7459 88.8371 43.0889 79.6641 51.9924C70.6168 60.7702 62.9711 68.3889 53.5016 75.4955C47.1227 80.2842 26.5484 93.5002 26.5484 93.5002L21.7598 88.4061Z" fill="#C8C8C8"/>
<path d="M93.3652 9.9277L95.8539 12.5511C95.8539 12.5511 100.023 8.53513 103.14 11.5269C106.339 14.5906 101.927 18.939 101.927 18.939L104.614 21.9398C104.614 21.9398 111.9 13.6922 105.952 8.32849C100.777 3.65661 93.3652 9.9277 93.3652 9.9277Z" fill="#3B5361"/>
<path d="M42.9808 66.4844C41.8218 67.5984 28.1296 83.8062 27.3659 84.7676C26.3866 86.0074 25.9374 87.4988 27.0425 88.4152C28.1476 89.3226 29.3425 88.4242 30.4296 87.6965C31.7952 86.789 47.6616 72.7914 48.7128 71.8211C50.4019 70.2578 50.6894 67.4367 48.9105 65.8375C46.9519 64.0765 44.7417 64.7953 42.9808 66.4844Z" fill="#9A9A9A"/>
<path d="M42.4868 62.8099C41.7052 62.136 40.7348 62.5853 39.7106 63.6903C38.8302 64.6517 38.4259 66.1431 39.3063 66.745C40.1868 67.347 41.3548 66.4665 42.0825 65.577C42.8102 64.6966 43.3673 63.5735 42.4868 62.8099Z" fill="#DFDFDF"/>
<path d="M45.0202 57.5808C44.2116 58.5062 43.0347 60.0336 44.1398 61.1207C45.2269 62.1898 46.871 60.8332 47.5898 60.0246C48.2995 59.216 56.4304 49.6746 66.7175 39.3965C76.762 29.3519 83.5183 23 84.5605 21.8859C85.4409 20.9426 85.3601 19.4422 84.5874 18.966C83.671 18.4 82.6558 18.7594 81.398 20.0172C80.1402 21.275 71.605 29.0824 63.555 37.2222C55.505 45.3621 46.0265 56.4219 45.0202 57.5808Z" fill="#DFDFDF"/>
<path d="M94.7587 37.3839C94.7587 37.3839 94.2645 34.0417 92.1891 35.3535C89.961 36.764 91.6231 40.5914 91.6231 40.5914C91.6231 40.5914 92.4587 39.8097 93.3481 38.8753C94.0848 38.1117 94.5161 37.6624 94.7587 37.3839Z" fill="#3B5361"/>
<path d="M86.7882 45.2451C86.7882 45.2451 86.4378 40.9596 84.0839 42.7205C82.2062 44.1311 83.482 48.3447 83.482 48.3447C83.482 48.3447 84.5601 47.3654 85.2609 46.7006C85.9706 46.0268 86.7882 45.2451 86.7882 45.2451Z" fill="#3B5361"/>
<path d="M79.1876 52.4509C79.1876 52.4509 78.9181 48.8931 76.8067 50.07C74.6954 51.247 76.106 55.4517 76.106 55.4517C76.106 55.4517 77.0403 54.6071 77.6692 53.9782C78.2981 53.3493 79.1876 52.4509 79.1876 52.4509Z" fill="#3B5361"/>
<path d="M70.5822 60.7705C70.5822 60.7705 70.4205 57.2307 68.3451 58.174C66.1888 59.1533 67.4826 63.6904 67.4826 63.6904C67.4826 63.6904 68.5337 62.7111 69.1177 62.1631C69.7107 61.624 70.5822 60.7705 70.5822 60.7705Z" fill="#3B5361"/>
</svg>
