<svg width="32" height="32" viewBox="0 0 32 32" fill="none" xmlns="http://www.w3.org/2000/svg">
<circle cx="16" cy="16" r="16" fill="#5C9C9A"/>
<path d="M22.3951 9.8933C22.3951 9.8933 23.9331 9.29362 23.8049 10.75C23.7622 11.3497 23.3777 13.4486 23.0787 15.7189L22.0534 22.444C22.0534 22.444 21.968 23.4291 21.199 23.6005C20.43 23.7718 19.2766 23.0008 19.0629 22.8295C18.8921 22.701 15.8589 20.7734 14.7909 19.831C14.4919 19.574 14.1501 19.06 14.8336 18.4603L19.3193 14.1768C19.8319 13.6628 20.3446 12.4634 18.2085 13.9198L12.2277 17.9891C12.2277 17.9891 11.5442 18.4175 10.2626 18.032L7.48573 17.1753C7.48573 17.1753 6.46044 16.5327 8.21198 15.8902C12.484 13.8769 17.7386 11.8209 22.3951 9.8933Z" fill="white"/>
</svg>
