<svg width="32" height="32" viewBox="0 0 32 32" fill="none" xmlns="http://www.w3.org/2000/svg">
<circle cx="16" cy="16" r="16" fill="#5C9C9A"/>
<path d="M24.5689 11.5792C24.3552 12.2513 24.067 12.8363 23.706 13.3675L23.721 13.3438C23.3664 13.9349 22.9428 14.6179 22.4504 15.3926C22.0282 16.0043 21.8047 16.321 21.7799 16.3426C21.6706 16.4796 21.5946 16.6474 21.5685 16.8319L21.5677 16.8374C21.5891 17.0053 21.6667 17.1517 21.7799 17.261L22.0965 17.614C23.7907 19.3552 24.7436 20.5554 24.9552 21.2145C24.983 21.2874 24.9988 21.3713 24.9988 21.4592C24.9988 21.6128 24.9497 21.7545 24.8666 21.8708L24.8682 21.8685C24.7288 22.0118 24.5341 22.1004 24.3187 22.1004C24.295 22.1004 24.2705 22.0996 24.2475 22.0973H24.2507H22.1678C22.167 22.0973 22.1654 22.0973 22.1638 22.0973C21.897 22.0973 21.6516 22.0038 21.4592 21.8487L21.4616 21.8503C21.1814 21.6199 20.932 21.3705 20.7087 21.0998L20.7016 21.0903C20.3369 20.6781 20.0134 20.331 19.731 20.0492C18.7905 19.1552 18.0965 18.7081 17.649 18.7081C17.6323 18.7065 17.6133 18.7058 17.5935 18.7058C17.4629 18.7058 17.341 18.7461 17.2405 18.815L17.2428 18.8134C17.1605 18.9163 17.1106 19.0493 17.1106 19.1926C17.1106 19.2211 17.1122 19.248 17.1162 19.2758V19.2726C17.0948 19.5212 17.0821 19.8101 17.0821 20.1023C17.0821 20.1965 17.0837 20.2899 17.0861 20.3833V20.3698V21.2874C17.094 21.3246 17.0987 21.3673 17.0987 21.4109C17.0987 21.6025 17.0117 21.7735 16.8755 21.8867L16.8747 21.8875C16.5683 22.0276 16.2105 22.1099 15.8329 22.1099C15.7521 22.1099 15.673 22.106 15.5946 22.0988L15.6049 22.0996C14.3588 22.0759 13.203 21.7109 12.2205 21.0958L12.2482 21.1116C11.052 20.3849 10.0608 19.4388 9.30558 18.321L9.2842 18.2878C8.56695 17.3362 7.89799 16.2611 7.32799 15.1274L7.27258 15.0055C6.93929 14.3706 6.59412 13.59 6.29645 12.7873L6.24895 12.6408C6.12783 12.2798 6.03995 11.8602 6.00354 11.4256L6.00195 11.4058C6.00195 11.0057 6.23734 10.8057 6.70812 10.8057H8.7902C8.8092 10.8041 8.83137 10.8033 8.85433 10.8033C9.05066 10.8033 9.23195 10.8706 9.37524 10.9838L9.37366 10.9823C9.53199 11.1556 9.64916 11.3686 9.70695 11.6061L9.70933 11.6156C10.0925 12.6978 10.4986 13.6066 10.9657 14.4775L10.9127 14.369C11.2942 15.1369 11.7162 15.798 12.1975 16.4083L12.1793 16.3838C12.6016 16.9021 12.9309 17.1612 13.1673 17.1612C13.1745 17.162 13.1832 17.162 13.1927 17.162C13.3098 17.162 13.412 17.0987 13.4674 17.0037L13.4682 17.0021C13.5267 16.8517 13.5608 16.6767 13.5608 16.4946C13.5608 16.4558 13.5592 16.417 13.556 16.379V16.3838V13.3129C13.5394 12.9511 13.4507 12.6131 13.3027 12.3099L13.309 12.3249C13.2109 12.1159 13.0929 11.9354 12.9528 11.7747L12.9552 11.7779C12.8253 11.648 12.7367 11.4778 12.709 11.2878L12.7082 11.2831C12.7082 11.1485 12.7699 11.0274 12.8665 10.9482L12.8673 10.9474C12.9631 10.8595 13.0913 10.8065 13.2315 10.8065H13.2378H16.52C16.5375 10.8041 16.5572 10.8033 16.5778 10.8033C16.7322 10.8033 16.8707 10.873 16.9626 10.9823L16.9634 10.983C17.0449 11.1319 17.0932 11.31 17.0932 11.4984C17.0932 11.5285 17.0916 11.5578 17.0892 11.5871V11.5831V15.6784C17.0877 15.6974 17.0869 15.7196 17.0869 15.7418C17.0869 15.8874 17.1272 16.0244 17.1969 16.1408L17.1953 16.1376C17.2531 16.2231 17.3497 16.2785 17.459 16.2785C17.5983 16.269 17.7257 16.2231 17.8326 16.1503L17.8302 16.1518C18.0456 16.0038 18.2308 15.8352 18.3915 15.6444L18.3947 15.6404C18.8752 15.0973 19.3186 14.4973 19.7049 13.8592L19.7358 13.8038C20.0081 13.3525 20.3026 12.7968 20.5694 12.226L20.6185 12.1096L20.9716 11.4034C21.0943 11.0503 21.4236 10.8018 21.8107 10.8018C21.8258 10.8018 21.8408 10.8018 21.8559 10.8025H21.8535H23.9364C24.499 10.8025 24.7101 11.0614 24.5697 11.5792H24.5689Z" fill="white"/>
</svg>
