<svg width="32" height="32" viewBox="0 0 32 32" fill="none" xmlns="http://www.w3.org/2000/svg">
<circle cx="16" cy="16" r="16" fill="#5C9C9A"/>
<g clip-path="url(#clip0_207_321)">
<path fill-rule="evenodd" clip-rule="evenodd" d="M22.03 19.415C21.801 20.0631 20.8909 20.5993 20.1651 20.7561C19.6683 20.8616 19.0203 20.945 16.8372 20.0403C14.3853 19.0245 10.9805 15.4059 10.9805 12.9979C10.9805 11.772 11.6873 10.3446 12.9233 10.3446C13.518 10.3446 13.6491 10.3562 13.8448 10.8256C14.0737 11.3787 14.6323 12.7413 14.6988 12.881C14.9734 13.454 14.4195 13.7895 14.0176 14.2884C13.8894 14.4385 13.7441 14.6009 13.9065 14.8803C14.068 15.154 14.6266 16.0643 15.4474 16.7951C16.5076 17.7397 17.3673 18.0413 17.6751 18.1696C17.9041 18.2646 18.1777 18.2425 18.3449 18.0638C18.5568 17.8348 18.8199 17.4548 19.0878 17.0804C19.2768 16.8124 19.5172 16.7789 19.769 16.874C19.939 16.9329 22.1002 17.9366 22.1914 18.0972C22.2589 18.2141 22.2589 18.7669 22.03 19.415ZM16.5019 6H16.4971C11.2598 6 7 10.2611 7 15.5C7 17.5773 7.66976 19.5046 8.80881 21.0678L7.6251 24.5978L11.276 23.4312C12.7779 24.4252 14.5705 25 16.5019 25C21.7392 25 26 20.7389 26 15.5C26 10.2611 21.7392 6 16.5019 6Z" fill="white"/>
</g>
<defs>
<clipPath id="clip0_207_321">
<rect width="19" height="19" fill="white" transform="translate(7 6)"/>
</clipPath>
</defs>
</svg>
